<svg width="23" height="22" xmlns="http://www.w3.org/2000/svg" fill="none">

 <g>
  <title>Layer 1</title>
  <path id="svg_1" stroke-linejoin="round" stroke-linecap="round" stroke-miterlimit="22.9256" stroke-width="2" stroke="#EF7F1A" d="m21.7478,1.00366l-21.11285,0l0,19.84284l21.11285,0l0,-19.84284z"/>
  <g>
   <path fill="#EF7F1A" d="m8.06781,15.54526l0,-9.09051l3.41049,0c0.6945,0 1.25052,0.09301 1.66804,0.27904c0.42167,0.18189 0.75031,0.46507 0.98595,0.84952c0.23976,0.38032 0.35965,0.77925 0.35965,1.19678c0,0.38859 -0.10542,0.75444 -0.31625,1.09755c-0.21083,0.34312 -0.52914,0.62009 -0.95494,0.83093c0.54982,0.16122 0.97148,0.43612 1.26499,0.82471c0.29764,0.38859 0.44646,0.84746 0.44646,1.3766c0,0.4258 -0.09094,0.82266 -0.27284,1.19058c-0.17776,0.36378 -0.39892,0.64489 -0.66349,0.84332c-0.26457,0.19843 -0.59736,0.34931 -0.99835,0.45266c-0.39685,0.09922 -0.88466,0.14882 -1.46341,0.14882l-3.4663,0zm1.20297,-5.27076l1.96569,0c0.53328,0 0.91566,-0.03514 1.14716,-0.10541c0.30591,-0.09095 0.53535,-0.24184 0.6883,-0.45267c0.15709,-0.21083 0.23564,-0.4754 0.23564,-0.79371c0,-0.30178 -0.07235,-0.56635 -0.21703,-0.79372c-0.14469,-0.2315 -0.35139,-0.38859 -0.62009,-0.47127c-0.26871,-0.08681 -0.72964,-0.13021 -1.3828,-0.13021l-1.81687,0l0,2.74699zm0,4.19801l2.26333,0c0.38859,0 0.66143,-0.01447 0.81852,-0.04341c0.27697,-0.0496 0.50847,-0.13228 0.6945,-0.24803c0.18603,-0.11575 0.33898,-0.28318 0.45887,-0.50228c0.11988,-0.22323 0.17982,-0.47953 0.17982,-0.76891c0,-0.33898 -0.08681,-0.63249 -0.26044,-0.88052c-0.17362,-0.25217 -0.41546,-0.42787 -0.7255,-0.52708c-0.30591,-0.10335 -0.74824,-0.15502 -1.32699,-0.15502l-2.10211,0l0,3.12525z"/>
  </g>
 </g>
</svg>