<svg width="23" height="22" xmlns="http://www.w3.org/2000/svg" fill="none">

 <g>
  <title>Layer 1</title>
  <path id="svg_1" stroke-linejoin="round" stroke-linecap="round" stroke-miterlimit="22.9256" stroke-width="2" stroke="#EF7F1A" d="m21.7478,1.00366l-21.11285,0l0,19.84284l21.11285,0l0,-19.84284z"/>
  <g>
   <path fill="#EF7F1A" d="m9.94626,18.64564l0,-9.45577l-1.63066,0l0,-1.43581l1.63066,0l0,-1.15889c0,-0.73158 0.06495,-1.27513 0.19485,-1.63066c0.17777,-0.47861 0.48886,-0.8649 0.93328,-1.1589c0.45125,-0.30084 1.08027,-0.45125 1.88705,-0.45125c0.51962,0 1.09394,0.06153 1.72296,0.1846l-0.2769,1.61015c-0.38288,-0.06837 -0.74525,-0.10256 -1.08711,-0.10256c-0.56065,0 -0.9572,0.11965 -1.18966,0.35895c-0.23247,0.2393 -0.3487,0.68714 -0.3487,1.3435l0,1.00506l2.12294,0l0,1.43581l-2.12294,0l0,9.45577l-1.83577,0z"/>
  </g>
 </g>
</svg>